<?xml version="1.0" encoding="utf-8"?>
<!-- Generator: Adobe Illustrator 19.2.0, SVG Export Plug-In . SVG Version: 6.00 Build 0)  -->
<svg version="1.1" id="Слой_1" xmlns="http://www.w3.org/2000/svg" xmlns:xlink="http://www.w3.org/1999/xlink" x="0px" y="0px"
	 viewBox="0 0 394.6 394.6" style="enable-background:new 0 0 394.6 394.6;" xml:space="preserve">
<style type="text/css">
	.st0{fill:#AAAAAA;}
</style>
<g>
	<path class="st0" d="M394.6,394.6H0V0h394.6V394.6z M13.2,381.4h368.2V13.2H13.2V381.4z"/>
</g>
<g>
	<path class="st0" d="M142.9,231.4h8.6c0.6,2.2,1.1,4.9,1.6,8s0.9,6.5,1.3,10c0.3,3.6,0.6,7.1,0.7,10.6c0.1,3.5,0.2,6.6,0.2,9.4
		c-4.9,3.1-11,5.2-18.3,6.5s-14.8,1.9-22.5,1.9c-11.6,0-22-1.4-31.5-4.3s-17.4-7.4-24-13.6c-6.6-6.2-11.7-14.1-15.4-23.6
		c-3.6-9.5-5.4-21-5.4-34.4c0-13.2,2-24.6,6-34.2c4-9.5,9.3-17.4,16-23.5s14.5-10.6,23.3-13.5c8.8-2.9,18.1-4.3,27.9-4.3
		c9.2,0,17.5,0.7,25,2s13.5,3.1,18.3,5.3c0,2.2-0.1,5.1-0.3,8.6s-0.6,7.1-1,11c-0.5,3.8-1,7.6-1.7,11.3c-0.6,3.7-1.2,6.8-1.8,9.3
		H141l-11.5-31.6c-1.3-0.7-3.3-1.3-6.1-1.7c-2.8-0.4-5.6-0.6-8.6-0.6c-5.7,0-11.1,1.1-16.1,3.4c-5,2.3-9.5,6-13.4,11
		s-7,11.5-9.2,19.3c-2.2,7.9-3.3,17.3-3.3,28.3c0,19.9,4,35.3,11.9,46c7.9,10.7,18.7,16.1,32.4,16.1c3.9,0,7.2-0.3,9.9-0.9
		s4.6-1.5,5.5-2.6L142.9,231.4z"/>
	<path class="st0" d="M356.3,275.3h-62.5v-7.9c2.8-1.4,5.5-2.6,8.2-3.6c2.6-1,5.5-1.8,8.6-2.5V174l1-24.5h-1.7l-6.9,22.4
		l-40.3,103.5H253l-40.1-102.6l-7.5-24.5h-1.9l0.2,26.5v85.7c2.6,0.6,5.6,1.5,8.8,2.7c3.2,1.3,6.2,2.6,9,4.2v7.9h-51v-7.9
		c2.2-1.1,5-2.4,8.3-4c3.3-1.5,6.4-2.6,9.3-3.1V143c-2.8-0.6-5.7-1.3-8.9-2.3c-3.1-1-5.9-2.2-8.3-3.8V129h56.6l32,85.1l6.1,20.1h0.2
		l6.3-20.5l32.6-84.6h51.8v7.9c-2.4,1.4-4.9,2.6-7.6,3.7c-2.7,1-5.5,1.8-8.3,2.4v118.5c2.9,0.6,5.7,1.4,8.5,2.5
		c2.7,1.1,5.1,2.2,7.2,3.3L356.3,275.3L356.3,275.3z"/>
</g>
</svg>
